# xmcd
#
# Track frame offsets: 
#        150
#        16989
#        32748
#        50446
#        65638
#        82764
#        99083
#        109459
#        124566
#        139972
#        154453
#        181033
#
# Disc length: 2619 seconds
#
# Revision: 1
# Processed by: cddbd v1.5.2PL0 Copyright (c) Steve Scherf et al.
# Submitted via: ExactAudioCopyFreeDBPlugin 1.0
#
DISCID=970a390c
DTITLE=Marcia Ball - Roadside Attractions
DYEAR=2011
DGENRE=Blues
TTITLE0=That's How It Goes
TTITLE1=Roadside Attractions
TTITLE2=Between Here And Kingdom Come
TTITLE3=We Fell Hard
TTITLE4=Look Before You Leap
TTITLE5=I Heard It All
TTITLE6=Believing In Love
TTITLE7=This Used To Be Paradise
TTITLE8=Everybody's Looking For The Same Thing
TTITLE9=Sugar Boogie
TTITLE10=Muleheaded Man
TTITLE11=The Party's Still Going On
EXTD=
EXTT0=
EXTT1=
EXTT2=
EXTT3=
EXTT4=
EXTT5=
EXTT6=
EXTT7=
EXTT8=
EXTT9=
EXTT10=
EXTT11=
PLAYORDER=
